<svg width="40" height="40" viewBox="0 0 40 40" fill="none" xmlns="http://www.w3.org/2000/svg">
<path opacity="0.2" d="M31.25 23.8833L25.5004 29.6328C25.3478 29.7855 25.1583 29.896 24.9502 29.9536C24.7422 30.0112 24.5228 30.014 24.3134 29.9616L15.2576 27.6977C15.0878 27.6552 14.9287 27.5776 14.7908 27.4697L6.25 20.7911L11.3397 11.2158L19.3585 8.87808C19.6449 8.79457 19.9518 8.81628 20.2237 8.93928L25.625 11.3833H22.3928C22.2286 11.3833 22.0661 11.4156 21.9144 11.4784C21.7628 11.5413 21.625 11.6333 21.5089 11.7494L15.3941 17.8642C15.2675 17.9908 15.1695 18.1432 15.1069 18.3109C15.0443 18.4787 15.0185 18.658 15.0312 18.8367C15.0438 19.0153 15.0948 19.1891 15.1805 19.3464C15.2662 19.5036 15.3847 19.6406 15.528 19.748L16.375 20.3833C17.2405 21.0324 18.2931 21.3833 19.375 21.3833C20.4569 21.3833 21.5095 21.0324 22.375 20.3833L24.375 18.8833L31.25 23.8833Z" fill="#23BD33"/>
<path d="M37.6121 19.0277L33.75 20.9588L28.75 11.3835L32.6515 9.43275C32.9446 9.28619 33.2835 9.2606 33.5953 9.3615C33.9071 9.46239 34.1668 9.6817 34.3185 9.9722L38.1611 17.3311C38.238 17.4782 38.2847 17.6392 38.2987 17.8046C38.3126 17.9701 38.2935 18.1366 38.2424 18.2945C38.1913 18.4525 38.1092 18.5986 38.001 18.7245C37.8928 18.8504 37.7606 18.9535 37.6121 19.0277V19.0277Z" stroke="#23BD33" stroke-width="2" stroke-linecap="round" stroke-linejoin="round"/>
<path d="M6.24965 20.7908L2.38752 18.8598C2.23904 18.7855 2.10684 18.6825 1.99862 18.5566C1.89041 18.4307 1.80836 18.2845 1.75725 18.1266C1.70614 17.9686 1.687 17.8021 1.70095 17.6367C1.71491 17.4713 1.76166 17.3103 1.8385 17.1631L5.68115 9.80423C5.83283 9.51374 6.09254 9.29443 6.40433 9.19353C6.71613 9.09264 7.05508 9.11822 7.3482 9.26478L11.2496 11.2155L6.24965 20.7908Z" stroke="#23BD33" stroke-width="2" stroke-linecap="round" stroke-linejoin="round"/>
<path d="M33.75 20.9604L31.25 23.8851L25.5004 29.6347C25.3478 29.7873 25.1583 29.8978 24.9502 29.9554C24.7422 30.0131 24.5228 30.0158 24.3134 29.9635L15.2576 27.6995C15.0878 27.6571 14.9287 27.5794 14.7908 27.4715L6.25 20.793" stroke="#23BD33" stroke-width="2" stroke-linecap="round" stroke-linejoin="round"/>
<path d="M31.2506 23.8828L24.3756 18.8828L22.3756 20.3828C21.5101 21.0319 20.4574 21.3828 19.3756 21.3828C18.2937 21.3828 17.241 21.0319 16.3756 20.3828L15.5286 19.7476C15.3853 19.6401 15.2668 19.5031 15.1811 19.3459C15.0953 19.1886 15.0444 19.0148 15.0317 18.8362C15.019 18.6575 15.0449 18.4783 15.1075 18.3105C15.1701 18.1427 15.268 17.9903 15.3947 17.8637L21.5094 11.7489C21.6255 11.6329 21.7633 11.5408 21.915 11.478C22.0666 11.4151 22.2292 11.3828 22.3933 11.3828H28.7506" stroke="#23BD33" stroke-width="2" stroke-linecap="round" stroke-linejoin="round"/>
<path d="M11.3401 11.2158L19.3588 8.87808C19.6453 8.79457 19.9522 8.81628 20.224 8.93928L25.6253 11.3833" stroke="#23BD33" stroke-width="2" stroke-linecap="round" stroke-linejoin="round"/>
<path d="M17.5 33.2596L12.7907 32.0823C12.5996 32.0345 12.4225 31.9423 12.2738 31.813L8.75 28.75" stroke="#23BD33" stroke-width="2" stroke-linecap="round" stroke-linejoin="round"/>
</svg>
