<svg width="40" height="40" viewBox="0 0 40 40" fill="none" xmlns="http://www.w3.org/2000/svg">
<path opacity="0.2" d="M13.75 25C18.2373 25 21.875 21.3623 21.875 16.875C21.875 12.3877 18.2373 8.75 13.75 8.75C9.26269 8.75 5.625 12.3877 5.625 16.875C5.625 21.3623 9.26269 25 13.75 25Z" fill="#FF6636"/>
<path d="M13.75 25C18.2373 25 21.875 21.3623 21.875 16.875C21.875 12.3877 18.2373 8.75 13.75 8.75C9.26269 8.75 5.625 12.3877 5.625 16.875C5.625 21.3623 9.26269 25 13.75 25Z" stroke="#FF6636" stroke-width="2" stroke-miterlimit="10"/>
<path d="M24.2834 9.05452C25.401 8.73965 26.573 8.66792 27.7206 8.84416C28.8682 9.0204 29.9647 9.44051 30.9362 10.0762C31.9078 10.7119 32.7318 11.5484 33.3529 12.5294C33.9739 13.5104 34.3775 14.6131 34.5365 15.7632C34.6955 16.9133 34.6062 18.0841 34.2746 19.1968C33.943 20.3094 33.3768 21.3381 32.6141 22.2136C31.8515 23.089 30.9101 23.7908 29.8534 24.2718C28.7966 24.7528 27.6491 25.0017 26.4881 25.0019" stroke="#FF6636" stroke-width="2" stroke-linecap="round" stroke-linejoin="round"/>
<path d="M2.49951 30.8432C3.76847 29.0382 5.45309 27.565 7.41115 26.548C9.36921 25.531 11.5432 25.0001 13.7496 25C15.9561 24.9999 18.1301 25.5307 20.0882 26.5476C22.0464 27.5644 23.7311 29.0375 25.0002 30.8424" stroke="#FF6636" stroke-width="2" stroke-linecap="round" stroke-linejoin="round"/>
<path d="M26.4878 25C28.6944 24.9984 30.8689 25.5285 32.8272 26.5455C34.7855 27.5625 36.4699 29.0364 37.7378 30.8424" stroke="#FF6636" stroke-width="2" stroke-linecap="round" stroke-linejoin="round"/>
</svg>
