<svg width="21" height="20" viewBox="0 0 21 20" fill="none" xmlns="http://www.w3.org/2000/svg">
<path fill-rule="evenodd" clip-rule="evenodd" d="M17.1187 3.34008C15.3646 1.58387 13.0317 0.616272 10.5464 0.615242C5.42518 0.615242 1.25724 4.78306 1.25518 9.90567C1.25449 11.5432 1.68227 13.1417 2.49538 14.5507L1.17725 19.3652L6.10267 18.0732C7.45982 18.8135 8.98772 19.2036 10.5426 19.2041H10.5465C15.6672 19.2041 19.8356 15.0359 19.8375 9.91311C19.8386 7.43043 18.873 5.09618 17.1187 3.34008ZM10.5464 17.635H10.5432C9.15755 17.6344 7.79857 17.262 6.61273 16.5586L6.33086 16.3911L3.40804 17.1579L4.18819 14.3082L4.00451 14.016C3.23146 12.7865 2.82325 11.3654 2.82394 9.90624C2.82554 5.64847 6.28989 2.18446 10.5495 2.18446C12.6122 2.18514 14.5512 2.98943 16.0091 4.44913C17.4671 5.90882 18.2696 7.84905 18.2689 9.91253C18.267 14.1707 14.8029 17.635 10.5464 17.635ZM14.7823 11.8513C14.5502 11.735 13.4088 11.1736 13.1959 11.096C12.9833 11.0185 12.8284 10.9799 12.6737 11.2122C12.5189 11.4446 12.0741 11.9676 11.9386 12.1224C11.8031 12.2773 11.6678 12.2968 11.4356 12.1805C11.2034 12.0644 10.4554 11.8191 9.56863 11.0282C8.87855 10.4126 8.41266 9.65241 8.27716 9.4201C8.14189 9.18755 8.27602 9.07403 8.37901 8.94631C8.63032 8.63423 8.88198 8.30704 8.95934 8.1522C9.03682 7.99725 8.99802 7.86164 8.93989 7.74548C8.88198 7.62932 8.41769 6.48663 8.22429 6.02166C8.03569 5.56916 7.84446 5.63027 7.70187 5.62318C7.5666 5.61642 7.41176 5.61505 7.25692 5.61505C7.10219 5.61505 6.85065 5.67307 6.63779 5.90562C6.42505 6.13805 5.82538 6.69961 5.82538 7.8423C5.82538 8.98499 6.65725 10.0889 6.77329 10.2438C6.88933 10.3988 8.41037 12.7437 10.7391 13.7492C11.293 13.9886 11.7254 14.1313 12.0626 14.2383C12.6188 14.415 13.1248 14.39 13.5248 14.3303C13.9709 14.2636 14.8983 13.7686 15.0919 13.2264C15.2853 12.6841 15.2853 12.2193 15.2272 12.1224C15.1692 12.0256 15.0144 11.9676 14.7823 11.8513Z" fill="#FF6636"/>
</svg>
